<?xml version="1.0" encoding="utf-8"?>
<!-- Generator: Adobe Illustrator 27.0.0, SVG Export Plug-In . SVG Version: 6.00 Build 0)  -->
<svg version="1.1" id="Layer_1" xmlns="http://www.w3.org/2000/svg" xmlns:xlink="http://www.w3.org/1999/xlink" x="0px" y="0px"
	 viewBox="0 0 671.1 751.4" style="enable-background:new 0 0 671.1 751.4;" xml:space="preserve">
<style type="text/css">
	.st0{fill:#E1BE50;}
</style>
<path class="st0" d="M136,612.9c-3,17.3,13.8,30.7,29,22.9L335.8,548l170.8,87.8c15.1,7.8,32-5.6,29-22.9l-32.4-184.2L640.3,298
	c13-12.1,6.1-34.6-10.8-36.8L438.7,234L354,65.8c-4.8-9.9-16.4-14.3-26.8-9.5c-4.3,2.2-7.4,5.2-9.5,9.5l-85.2,168.7L41.7,261.7
	c-17.3,2.6-23.8,24.6-10.8,36.8L168,429.1L136,612.9L136,612.9z M326.7,505.2l-143.6,73.5l26.8-154c1.3-7.4-1.3-14.7-6.5-19.5
	L91,297.6l157.8-22.5c6.5-0.9,12.5-5.2,15.1-11.2l71.8-142.3l71.8,142.3c3,6.1,8.6,10.4,15.1,11.2l157.8,22.5L467.3,405.3
	c-5.2,5.2-7.8,12.5-6.5,19.9l26.8,154L344,505.6C338.8,502.2,332.4,502.2,326.7,505.2L326.7,505.2z"/>
<polygon class="st0" points="504.1,621.7 332.4,529.9 158.9,619.5 193,427.4 54.2,290.3 247.6,263.7 335,89.3 420.2,264.6 
	612.8,293.8 472.6,429.2 "/>
</svg>
